<?xml version="1.0" encoding="utf-8"?>
<!-- Generator: Adobe Illustrator 18.1.1, SVG Export Plug-In . SVG Version: 6.00 Build 0)  -->
<svg version="1.1" id="Ebene_1" xmlns="http://www.w3.org/2000/svg" xmlns:xlink="http://www.w3.org/1999/xlink" x="0px" y="0px"
	 viewBox="0 0 164.8 73.7" enable-background="new 0 0 164.8 73.7" xml:space="preserve">
<path fill="#FFFFFF" d="M8.6,24.9c-0.4,0.2-0.8,0.7-0.9,1.2c-0.1,0.6,0.2,1.1,0.6,1.5c1.3,1,2.7,1.9,4,2.9v0.6L12,30.9l-4.5-3.1
	c-0.6-0.4-1.2-1-1.1-1.8c0.1-0.4,0.4-0.8,0.8-0.9C7.6,24.9,8.1,24.8,8.6,24.9"/>
<polygon fill="#FFFFFF" points="37.7,0 37.7,10.4 33.2,10.4 33.2,0 25.2,0 25.2,10.4 20.6,10.4 20.6,0 12.6,0 12.6,10.4 8,10.4 8,0 
	0,0 0,12 1.7,12 1.7,1.6 6.3,1.6 6.3,12 14.3,12 14.3,1.6 18.9,1.6 18.9,12 26.9,12 26.9,1.6 31.5,1.6 31.5,12 39.5,12 39.5,1.6 
	44,1.6 44,12 45.8,12 45.8,0 "/>
<path fill="#FFFFFF" d="M16.6,38.6c-0.2-0.7-0.6-1.5-1.2-1.9c-1.7,0.4-3.4,0.8-5.1,1.3C10,38,9.8,38.1,9.5,38.2
	c0.6-1.3,0.6-3.2-0.4-4.4L5.4,37c1,1.3,1.9,2.7,2.9,4c0.3,0.3,0.7,0.4,1.1,0.6l5.8,0.9l1.5,0.2v-3.4L16.6,38.6z"/>
<path fill="#FFFFFF" d="M7.7,32.5c-0.2-0.1-0.6-0.3-0.6-0.3c0.4,0.6,0.7,1.1,1.1,1.6l0.5-0.5C8.4,32.9,7.8,32.5,7.7,32.5"/>
<path fill="#FFFFFF" d="M6.3,32.9c0.3,0.5,0.7,1,1.1,1.5l0.6-0.5C7.5,33.3,6.8,33.2,6.3,32.9"/>
<path fill="#FFFFFF" d="M7.1,34.5c-0.4-0.6-1.1-0.7-1.7-1c0.3,0.5,0.7,1,1.1,1.5L7.1,34.5C7.1,34.6,7.1,34.6,7.1,34.5"/>
<path fill="#FFFFFF" d="M4.7,34.2c0.3,0.5,0.7,1,1.1,1.5l0.6-0.5C5.9,34.6,5.2,34.5,4.7,34.2"/>
<path fill="#FFFFFF" d="M3.9,34.9l1,1.5l0.6-0.5C5.2,35.3,4.5,35.1,3.9,34.9"/>
<path fill="#FFFFFF" d="M21.8,51.1l1.8,0.3l0-0.7C22.9,50.6,22.4,51,21.8,51.1"/>
<path fill="#FFFFFF" d="M23.3,51.6c-0.6,0-1,0.4-1.5,0.6c0.5,0.1,1.2,0.2,1.8,0.2l0-0.8H23.3z"/>
<path fill="#FFFFFF" d="M22.4,52.9l-0.7,0.3l1.8,0.2l0-0.8C23.1,52.7,22.7,52.7,22.4,52.9"/>
<path fill="#FFFFFF" d="M21.6,54.2l1.9,0.2l0-0.8C22.8,53.6,22.2,54,21.6,54.2"/>
<path fill="#FFFFFF" d="M21.6,55.2c0.6,0.1,1.2,0.2,1.8,0.3l0-0.8C22.8,54.6,22.2,55,21.6,55.2"/>
<path fill="#FFFFFF" d="M11.7,44.7c0.6,0.1,1.2,0.2,1.9,0.2l0-0.7C12.9,44.1,12.3,44.5,11.7,44.7"/>
<path fill="#FFFFFF" d="M11.7,45.8l1.9,0.2l0-0.8C12.8,45.1,12.2,45.5,11.7,45.8"/>
<path fill="#FFFFFF" d="M13.1,46.2c-0.6,0-1,0.3-1.5,0.5c0.6,0.1,1.3,0.2,1.9,0.2l0-0.8H13.1z"/>
<path fill="#FFFFFF" d="M13.1,47.3c-0.6,0-1,0.4-1.5,0.5l1.7,0.2l0.2,0l0-0.8H13.1z"/>
<path fill="#FFFFFF" d="M11.6,48.8l1.8,0.2l0-0.7C12.7,48.2,12.1,48.5,11.6,48.8"/>
<path fill="#FFFFFF" d="M30.5,61l1.2-1.5L31,59.1C30.5,59.6,30.6,60.3,30.5,61"/>
<path fill="#FFFFFF" d="M31.4,61.5c0.4-0.5,0.8-1,1.1-1.5l-0.7-0.4C31.4,60.1,31.5,60.9,31.4,61.5"/>
<path fill="#FFFFFF" d="M32.2,62.1c0.4-0.4,0.8-1,1.2-1.4l-0.7-0.4C32.3,60.7,32.4,61.4,32.2,62.1"/>
<path fill="#FFFFFF" d="M33,62.7c0.4-0.5,0.8-1,1.2-1.5l-0.7-0.4C33.1,61.3,33.2,62,33,62.7"/>
<path fill="#FFFFFF" d="M33.9,63.2l1.1-1.4l-0.6-0.4C34,61.8,33.9,62.5,33.9,63.2"/>
<path fill="#FFFFFF" d="M37.7,46.3l0.1,0.1c0.6,0.2,1.1,0.3,1.7,0.3l-0.1-0.2l-0.3-2.3c-0.1-1.3-1.3-2.1-2.3-2.8l-11.7-7.9
	c-0.3-0.2-0.5-0.4-0.8-0.4c0.2-0.2,0.3-0.4,0.3-0.6c0-0.4-0.2-0.7-0.6-0.9l-3.4-1.8c-0.3-0.2-0.6-0.2-0.9-0.2l0.2-0.2
	c0.2-0.2,0.3-0.4,0.3-0.6c0.1-0.4,0-0.8-0.3-1.2c-0.3-0.3-0.6-0.6-1.2-0.5c-0.4,0.1-0.7,0.3-0.9,0.8c-0.1,0.2,0,0.6,0,0.8
	c-0.1-0.2-0.1-0.4-0.3-0.5c-0.8-0.4-1.6-0.9-2.3-1.3c-0.2-0.1-0.4-0.2-0.6,0c-0.2,0.1-0.2,0.4-0.3,0.6l-0.1-0.2
	c-1.6-0.9-3.3-1.8-4.9-2.7c0.1,0.2,0.3,0.3,0.3,0.6l0,2.3c1,0.7,2,1.3,3,2.1c0.2,0.1,0.3,0.3,0.4,0.6c0.1,0.4,0,0.8-0.2,1.1
	c-0.2,0.3-0.5,0.5-0.9,0.4c-0.8-0.3-1.6-0.9-2.3-1.5c0,0.5,0,1.1,0,1.7l6.4,4.5c0.8,0.7,1.2,1.6,1.3,2.6l0,5.9v1.1l0.2,1
	c-0.5-0.8-1.3-1.7-2.1-2.1c-0.4-0.2-0.8-0.4-1.3-0.4c0,0.6,0,1.1-0.1,1.7l-0.1,2.7c0,0.2,0,0.3,0,0.5l3.9,0.6c0.4,0,1,0.2,1.3-0.2
	l4.5-6h0c0,0.2-0.2,0.3-0.2,0.4l0.9,0.1l0.3-0.2c-0.3,0.4-0.6,0.8-0.8,1.3C23.9,46,24,47,24.4,47.7l3.5,5.7v0.1l-0.5-0.7
	c-0.8-1.1-1.9-1.7-3-2l-0.1,2.7l-0.1,1.9l0,0.3l4.5,0.6l0.4,0c0.2-0.1,0.4-0.3,0.5-0.6l1.5-3.7c-0.4-0.6-0.7-1.1-1-1.7
	c-0.5-1.1-0.8-2.5-0.4-3.8l0-0.2l-2.5-1.5l-0.3-0.2l3.4,0.6c0.3,0.1,0.6,0,0.9-0.1c-0.4,0.7-0.6,1.3-0.7,2.2c-0.2,1.6,0.6,2.8,1.3,4
	l2.8,4.6c0.4,0.6,1,0.9,1.7,1.1h0c-0.9-0.3-2.1-0.3-3.1,0c-0.7,0.3-1.3,0.8-1.7,1.5l4.1,2.6l2-2.5c0.5-0.8,1.3-1.4,1.3-2.4l-1-9.4
	C37.9,46.6,37.7,46.5,37.7,46.3 M15.3,29.5c-0.4,0-0.7-0.3-0.7-0.7c0-0.4,0.3-0.7,0.7-0.7c0.4,0,0.7,0.3,0.7,0.7
	C16,29.2,15.7,29.5,15.3,29.5"/>
<path fill="#FFFFFF" d="M0,17.3v33.5c0,12.6,10.3,22.9,22.9,22.9c12.6,0,22.9-10.3,22.9-22.9V17.3H0z M44.1,39.5L13.4,19h30.6V39.5z
	 M1.7,50.8v-5.6l33.7,22.7c-3.5,2.6-7.8,4.1-12.5,4.1C11.2,72,1.7,62.5,1.7,50.8 M36.7,66.8l-35-23.7V19h8.8l33.6,22.4v9.4
	C44.1,57.2,41.2,63,36.7,66.8"/>
<path fill="#FFFFFF" d="M64.8,56.9c0,0.7,0,2.7,2.6,2.7c1.6,0,2.7-0.8,2.7-2c0-1.3-0.9-1.5-2.7-1.9c-3.4-0.8-5.2-1.8-5.2-4.3
	c0-2.3,1.7-4.4,5.6-4.4c1.5,0,3.2,0.3,4.3,1.7c0.8,1,0.8,2.2,0.8,2.6h-2.9c0-0.5-0.2-2.2-2.3-2.2c-1.4,0-2.3,0.8-2.3,1.9
	c0,1.3,1,1.5,3.1,2.1c2.4,0.6,4.9,1.3,4.9,4c0,2.5-2.1,4.6-6,4.6c-5.4,0-5.5-3.5-5.5-4.9H64.8z"/>
<path fill="#FFFFFF" d="M81.7,61.3c-0.9,0.3-1.8,0.3-2.3,0.3c-2.9,0-2.9-1.8-2.9-2.7v-5.4h-1.9v-1.9h1.9v-1.9l2.9-1.1v3h2.3v1.9
	h-2.3V58c0,0.9,0,1.5,1.3,1.5c0.4,0,0.6,0,1-0.1V61.3z"/>
<path fill="#FFFFFF" d="M90,61.4c-0.1-0.6-0.1-1.1-0.1-1.4c-1.1,1.6-2.4,1.6-3,1.6c-1.4,0-2.1-0.4-2.5-0.8c-0.6-0.6-0.9-1.4-0.9-2.2
	c0-0.8,0.3-2.2,2.1-3.1c1.2-0.5,3-0.5,3.9-0.5c0-0.6,0-1-0.1-1.3c-0.3-0.7-1-0.8-1.3-0.8c-0.4,0-0.8,0.2-1.1,0.5
	c-0.2,0.3-0.2,0.6-0.2,0.9H84c0-0.5,0.1-1.6,1.1-2.3c0.9-0.6,2.1-0.8,3-0.8c0.8,0,2.5,0.1,3.5,1.3c0.7,0.8,0.7,2,0.7,2.4l0,4
	c0,0.8,0.1,1.7,0.2,2.5H90z M86.4,58.4c0,0.7,0.4,1.4,1.4,1.4c0.5,0,1-0.3,1.2-0.6c0.5-0.6,0.5-1.4,0.5-2.4
	C87.8,56.6,86.4,57.2,86.4,58.4"/>
<path fill="#FFFFFF" d="M102,47.3h2.9v12.5c0,0.6,0,1.2,0.1,1.6h-2.9L102,60c-0.2,0.4-0.4,0.7-1,1.1c-0.7,0.5-1.5,0.5-1.9,0.5
	c-2.6,0-4.2-1.8-4.2-4.9c0-3.3,1.8-5.3,4.4-5.3c1.8,0,2.5,1,2.8,1.4V47.3z M99.8,59.7c0.8,0,1.5-0.5,1.8-1.1
	c0.4-0.8,0.5-1.8,0.5-2.3c0-1.9-0.8-3-2.2-3c-1.9,0-2.2,2.3-2.2,3.3C97.8,58.3,98.4,59.7,99.8,59.7"/>
<path fill="#FFFFFF" d="M113.8,61.3c-0.9,0.3-1.8,0.3-2.2,0.3c-2.9,0-2.9-1.8-2.9-2.7v-5.4h-1.9v-1.9h1.9v-1.9l2.9-1.1v3h2.3v1.9
	h-2.3V58c0,0.9,0,1.5,1.3,1.5c0.4,0,0.6,0,1-0.1V61.3z"/>
<path fill="#FFFFFF" d="M122.2,47.3h5.3c0.8,0,2.4,0,3.5,0.7c1.3,0.8,1.6,2.2,1.6,3c0,0.5-0.1,1.5-0.8,2.1c-0.1,0.1-0.8,0.7-1.6,1v0
	c2.2,0.4,3,2,3,3.4c0,1.7-1,2.8-2.1,3.3c-1.1,0.6-3,0.6-3.6,0.6h-5.3V47.3z M125.1,53h2.1c0.9,0,2.4,0,2.4-1.8
	c0-1.8-1.5-1.8-2.5-1.8h-2.1V53z M125.1,59.1h2.1c1.4,0,3,0,3-1.9c0-2-1.8-2-3.3-2h-1.7V59.1z"/>
<path fill="#FFFFFF" d="M138.1,57.2c0,0.6,0,2.6,2,2.6c0.7,0,1.5-0.3,1.7-1.4h2.6c0,0.5-0.1,1.3-0.9,2.2c-0.7,0.8-2,1.2-3.5,1.2
	c-0.8,0-2.4-0.2-3.5-1.2c-0.9-0.9-1.3-2.3-1.3-3.9c0-1.6,0.4-3.5,2.1-4.7c0.8-0.5,1.7-0.8,2.8-0.8c1.4,0,3.1,0.5,4,2.4
	c0.7,1.4,0.6,2.8,0.6,3.6H138.1z M141.8,55.4c0-0.5,0-2.2-1.7-2.2c-1.3,0-1.8,1.1-1.9,2.2H141.8z"/>
<path fill="#FFFFFF" d="M147.2,54c0-0.5-0.1-1.9-0.1-2.5h2.7l0.1,1.9c0.4-0.8,1-2,3.4-1.9v2.6c-2.9-0.3-3.1,1.2-3.1,2.5v4.9h-2.9V54
	z"/>
<path fill="#FFFFFF" d="M154.6,53.3c0,0,0-1.1-0.1-1.8h2.8l0.1,1.5c0.3-0.5,1.1-1.7,3.2-1.7c1.9,0,2.8,1.2,3,1.9
	c0.2,0.6,0.3,1.1,0.3,3v5.3h-3v-6.1c0-0.4,0-0.8-0.2-1.1c-0.2-0.4-0.7-0.8-1.4-0.8c-0.6,0-1.2,0.3-1.5,0.8c-0.2,0.3-0.4,0.7-0.4,1.5
	v5.8h-2.9V53.3z"/>
<path fill="#FFFFFF" d="M65.4,35.5c-2.1,0-3.9-1.6-4-3.8h1.3c0,2.1,1.6,2.6,3.3,2.6c1.5,0,3.2-0.9,3.2-2.6c0-1.3-1-2-2.1-2.3
	c-2.2-0.7-5.5-1.4-5.5-4.3c0-2.3,2.1-3.6,4.3-3.6c1.8,0,4,0.6,4.3,3.2h-1.3c0-1.6-1.5-2.1-2.9-2.1c-1.4,0-3.1,0.7-3.1,2.3
	c0,3.8,7.5,2.1,7.5,6.7C70.6,34.6,68.1,35.5,65.4,35.5"/>
<path fill="#FFFFFF" d="M74.1,38.7H73V28c0-0.7-0.1-1.5-0.1-2.1H74l0.1,1.4l0,0c0.6-1.1,1.9-1.7,3.2-1.7c2.8,0,3.8,2.5,3.8,4.9
	c0,2.3-1.1,5-3.8,5c-1.3,0-2.5-0.6-3.2-1.7h0V38.7z M77.3,34.5c2.1,0,2.7-2.3,2.7-4.1c0-1.8-0.7-3.7-2.8-3.7c-2.2,0-3,1.8-3,3.7
	C74.1,32.4,74.8,34.5,77.3,34.5"/>
<path fill="#FFFFFF" d="M91.5,30.6c0,2.4-1.4,4.9-4.3,4.9c-3,0-4.3-2.5-4.3-4.9c0-2.4,1.4-4.9,4.3-4.9
	C90.1,25.6,91.5,28.1,91.5,30.6 M87.1,26.7c-2.2,0-3.1,2.2-3.1,3.9c0,1.7,0.9,3.9,3.1,3.9c2.2,0,3.1-2.2,3.1-3.9
	C90.3,28.8,89.4,26.7,87.1,26.7"/>
<path fill="#FFFFFF" d="M94.9,35.2h-1.1V28c0-0.7-0.1-1.5-0.1-2.1h1.1l0.1,1.4h0c0.3-0.9,1.2-1.6,2.1-1.6c0.4,0,0.7,0,1.1,0v1.1
	c-0.2,0-0.5-0.1-0.7-0.1c-1.6,0-2.5,1.2-2.5,3V35.2z"/>
<path fill="#FFFFFF" d="M100.7,26.9h-1.9v-1h1.9v-2l1.1-0.5v2.5h2.1v1h-2.1v6.2c0,0.8,0.4,1.3,1.3,1.3c0.3,0,0.7,0,1-0.1v1
	c-0.3,0.1-0.8,0.2-1.1,0.2c-2.3,0-2.2-1.5-2.2-2.8V26.9z"/>
<g>
</g>
<g>
</g>
<g>
</g>
<g>
</g>
<g>
</g>
<g>
</g>
</svg>
